<svg xmlns="http://www.w3.org/2000/svg" display="none"><defs><symbol id="help-in-circle" viewBox="0 0 24 24"><path fill-rule="evenodd" clip-rule="evenodd" d="M12 3a9 9 0 100 18 9 9 0 000-18zM1 12C1 5.925 5.925 1 12 1s11 4.925 11 11-4.925 11-11 11S1 18.075 1 12z"/><path fill-rule="evenodd" clip-rule="evenodd" d="M12.258 8.024a2 2 0 00-2.224 1.308 1 1 0 01-1.887-.664 4 4 0 017.773 1.333c0 1.53-1.135 2.54-1.945 3.081a8.036 8.036 0 01-1.686.848l-.035.013-.011.003-.004.002h-.001s-.002 0-.318-.948l.316.949a1 1 0 01-.633-1.897h-.001l.017-.006.074-.027a6.046 6.046 0 001.172-.6c.69-.46 1.055-.95 1.055-1.419v-.002a2 2 0 00-1.662-1.974zM12 15a1 1 0 011 1v.5a1 1 0 11-2 0V16a1 1 0 011-1z"/></symbol><symbol id="hamburger" viewBox="0 0 24 24"><path fill-rule="evenodd" clip-rule="evenodd" d="M2 12a1 1 0 011-1h18a1 1 0 110 2H3a1 1 0 01-1-1zm0-6a1 1 0 011-1h18a1 1 0 110 2H3a1 1 0 01-1-1zm0 12a1 1 0 011-1h18a1 1 0 110 2H3a1 1 0 01-1-1z"/></symbol><symbol id="close-cross" viewBox="0 0 16 16"><path fill-rule="evenodd" clip-rule="evenodd" d="M12.471 3.529c.26.26.26.682 0 .942l-8 8a.667.667 0 11-.942-.942l8-8c.26-.26.682-.26.942 0z"/><path fill-rule="evenodd" clip-rule="evenodd" d="M3.529 3.529c.26-.26.682-.26.942 0l8 8a.667.667 0 11-.942.942l-8-8a.667.667 0 010-.942z"/></symbol><symbol id="arrow-down" viewBox="0 0 18 10"><path d="M1 1l8 8 8-8" stroke-width="2" stroke-linecap="round" stroke-linejoin="round"/></symbol><symbol id="check" viewBox="0 0 24 24"><path d="M20.707 5.293a1 1 0 010 1.414l-11 11a1 1 0 01-1.414 0l-5-5a1 1 0 111.414-1.414L9 15.586 19.293 5.293a1 1 0 011.414 0z"/></symbol><symbol id="input-check" viewBox="0 0 15 13"><path d="M1.5 7.5L5 11l8-9" stroke-width="3" stroke-linecap="round" stroke-linejoin="round"/></symbol><symbol id="check-circle" viewBox="0 0 24 24"><path d="M22 11.08V12a10 10 0 11-5.93-9.14" stroke-width="2" stroke-linecap="round" stroke-linejoin="round"/><path d="M22 4L12 14.01l-3-3" stroke-width="2" stroke-linecap="round" stroke-linejoin="round"/></symbol><symbol id="alert-triangle" viewBox="0 0 24 24"><path d="M10.29 3.86L1.82 18a2 2 0 001.71 3h16.94a2 2 0 001.71-3L13.71 3.86a2 2 0 00-3.42 0zM12 9v4m0 3v.5" stroke-width="2" stroke-linecap="round" stroke-linejoin="round"/></symbol><symbol id="sun" viewBox="0 0 24 24"><g clip-path="url(#clip0_16890_0)" fill-rule="evenodd" clip-rule="evenodd"><path d="M12 8a4 4 0 100 8 4 4 0 000-8zm-6 4a6 6 0 1112 0 6 6 0 01-12 0zm6-12a1 1 0 011 1v2a1 1 0 11-2 0V1a1 1 0 011-1zm0 20a1 1 0 011 1v2a1 1 0 11-2 0v-2a1 1 0 011-1zM3.513 3.513a1 1 0 011.414 0l1.42 1.42a1 1 0 01-1.414 1.414l-1.42-1.42a1 1 0 010-1.414zm14.14 14.14a1 1 0 011.414 0l1.42 1.42a1 1 0 01-1.414 1.414l-1.42-1.42a1 1 0 010-1.414zM0 12a1 1 0 011-1h2a1 1 0 110 2H1a1 1 0 01-1-1zm20 0a1 1 0 011-1h2a1 1 0 110 2h-2a1 1 0 01-1-1zM6.347 17.653a1 1 0 010 1.414l-1.42 1.42a1 1 0 01-1.414-1.414l1.42-1.42a1 1 0 011.414 0zm14.14-14.14a1 1 0 010 1.414l-1.42 1.42a1 1 0 11-1.414-1.414l1.42-1.42a1 1 0 011.414 0z"/></g><defs><clipPath id="clip0_16890_0"><path d="M0 0h24v24H0z"/></clipPath></defs></symbol><symbol id="moon"><path fill-rule="evenodd" clip-rule="evenodd" d="M12.081 2.509a1 1 0 01-.067 1.085 6 6 0 008.392 8.392l.594.804.996.092A10 10 0 1111.118 2.004a1 1 0 01.963.505zm7.48 12.175A7.999 7.999 0 019.316 4.439a8 8 0 1010.245 10.245z"/></symbol><symbol viewBox="0 0 110 32" id="logo"><g clip-path="url(#clip0_16746_155)"><path d="M0 1h30v30H0z"/><rect x="38" width="32" height="32" rx="16"/><path d="M78 0l32 32H78V0z"/></g><defs><clipPath id="clip0_16746_155"><path d="M0 0h110v32H0z"/></clipPath></defs></symbol></defs></svg>